HIERARCHY
ROOT Hips
{
	OFFSET 0.000000 0.000000 0.000000
	CHANNELS 6 Xposition Yposition Zposition Zrotation Yrotation Xrotation 
	JOINT LHipJoint
	{
		OFFSET 0.000000 0.000000 0.000000
		CHANNELS 3 Zrotation Yrotation Xrotation
		JOINT LeftUpLeg
		{
			OFFSET 1.363060 -1.794630 0.839290
			CHANNELS 3 Zrotation Yrotation Xrotation
			JOINT LeftLeg
			{
				OFFSET 2.448110 -6.726130 0.000000
				CHANNELS 3 Zrotation Yrotation Xrotation
				JOINT LeftFoot
				{
					OFFSET 2.562200 -7.039590 0.000000
					CHANNELS 3 Zrotation Yrotation Xrotation
					JOINT LeftToeBase
					{
						OFFSET 0.157640 -0.433110 2.322550
						CHANNELS 3 Zrotation Yrotation Xrotation
						End Site
						{
							OFFSET 0.000000 0.000000 0.000000
						}
					}
				}
			}
		}
	}
	JOINT RHipJoint
	{
		OFFSET 0.000000 0.000000 0.000000
		CHANNELS 3 Zrotation Yrotation Xrotation
		JOINT RightUpLeg
		{
			OFFSET -1.305520 -1.794630 0.839290
			CHANNELS 3 Zrotation Yrotation Xrotation
			JOINT RightLeg
			{
				OFFSET -2.542530 -6.985550 0.000000
				CHANNELS 3 Zrotation Yrotation Xrotation
				JOINT RightFoot
				{
					OFFSET -2.568260 -7.056230 0.000000
					CHANNELS 3 Zrotation Yrotation Xrotation
					JOINT RightToeBase
					{
						OFFSET -0.164730 -0.452590 2.363150
						CHANNELS 3 Zrotation Yrotation Xrotation
						End Site
						{
							OFFSET 0.000000 0.000000 0.000000
						}
					}
				}
			}
		}
	}
	JOINT LowerBack
	{
		OFFSET 0.000000 0.000000 0.000000
		CHANNELS 3 Zrotation Yrotation Xrotation
		JOINT Spine
		{
			OFFSET 0.028270 2.035590 -0.193380
			CHANNELS 3 Zrotation Yrotation Xrotation
			JOINT Spine1
			{
				OFFSET 0.056720 2.048850 -0.042750
				CHANNELS 3 Zrotation Yrotation Xrotation
				JOINT Neck
				{
					OFFSET 0.000000 0.000000 0.000000
					CHANNELS 3 Zrotation Yrotation Xrotation
					JOINT Neck1
					{
						OFFSET -0.054170 1.746240 0.172020
						CHANNELS 3 Zrotation Yrotation Xrotation
						JOINT Head
						{
							OFFSET 0.104070 1.761360 -0.123970
							CHANNELS 3 Zrotation Yrotation Xrotation
							End Site
							{
								OFFSET 0.000000 0.000000 0.000000
							}
						}
					}
				}
				JOINT LeftShoulder
				{
					OFFSET 0.000000 0.000000 0.000000
					CHANNELS 3 Zrotation Yrotation Xrotation
					JOINT LeftArm
					{
						OFFSET 3.362410 1.200890 -0.311210
						CHANNELS 3 Zrotation Yrotation Xrotation
						JOINT LeftForeArm
						{
							OFFSET 4.983000 -0.000000 -0.000000
							CHANNELS 3 Zrotation Yrotation Xrotation
							JOINT LeftHand
							{
								OFFSET 3.483560 -0.000000 -0.000000
								CHANNELS 3 Zrotation Yrotation Xrotation
								JOINT LeftFingerBase
								{
									OFFSET 0.000000 0.000000 0.000000
									CHANNELS 3 Zrotation Yrotation Xrotation
									JOINT LeftHandIndex1
									{
										OFFSET 0.715260 -0.000000 -0.000000
										CHANNELS 3 Zrotation Yrotation Xrotation
										End Site
										{
											OFFSET 0.000000 0.000000 0.000000
										}
									}
								}
								JOINT LThumb
								{
									OFFSET 0.000000 0.000000 0.000000
									CHANNELS 3 Zrotation Yrotation Xrotation
									End Site
									{
										OFFSET 0.000000 0.000000 0.000000
									}
								}
							}
						}
					}
				}
				JOINT RightShoulder
				{
					OFFSET 0.000000 0.000000 0.000000
					CHANNELS 3 Zrotation Yrotation Xrotation
					JOINT RightArm
					{
						OFFSET -3.136600 1.374050 -0.404650
						CHANNELS 3 Zrotation Yrotation Xrotation
						JOINT RightForeArm
						{
							OFFSET -5.241900 -0.000000 -0.000000
							CHANNELS 3 Zrotation Yrotation Xrotation
							JOINT RightHand
							{
								OFFSET -3.444170 -0.000000 -0.000000
								CHANNELS 3 Zrotation Yrotation Xrotation
								JOINT RightFingerBase
								{
									OFFSET 0.000000 0.000000 0.000000
									CHANNELS 3 Zrotation Yrotation Xrotation
									JOINT RightHandIndex1
									{
										OFFSET -0.622530 -0.000000 -0.000000
										CHANNELS 3 Zrotation Yrotation Xrotation
										End Site
										{
											OFFSET 0.000000 0.000000 0.000000
										}
									}
								}
								JOINT RThumb
								{
									OFFSET 0.000000 0.000000 0.000000
									CHANNELS 3 Zrotation Yrotation Xrotation
									End Site
									{
										OFFSET 0.000000 0.000000 0.000000
									}
								}
							}
						}
					}
				}
			}
		}
	}
}
MOTION
Frames: 7
Frame Time: 0.008333
15.820571 15.402102 -11.271411 -178.527143 8.041353 -175.585360 5.422142 20.013982 8.572774 -22.092270 -13.662464 -19.100013 12.487034 9.844417 71.449126 -14.011046 7.056507 17.972412 4.453277 -4.099530 -17.133187 3.226887 -27.276956 16.645835 36.878314 29.698676 -42.876000 -4.818429 10.743651 21.784859 16.268388 8.972516 17.995264 14.350367 -24.760306 19.624641 -9.362698 -0.465965 -7.853140 4.407627 -3.456693 -1.339906 3.797271 -2.738865 21.553044 -7.897791 1.116163 -23.874376 -2.667250 2.700924 10.574441 15.125910 -1.686168 15.008151 2.399204 8.976730 6.293723 -79.802999 -32.152148 25.769997 81.559786 -65.082898 -7.776691 0.493827 -44.725425 6.362169 0.000001 -0.000001 -0.000001 -0.000000 -0.000000 -0.000000 -0.000000 -0.000000 -0.000000 -10.287477 0.372159 -0.445770 72.509705 10.553824 20.184784 -10.724132 55.984708 13.208268 -19.457994 29.212243 -1.189089 0.000002 0.000001 -0.000002 -0.000000 0.000000 0.000000 -0.000000 -0.000000 0.000000 
15.843994 15.324174 -11.646922 -178.376469 7.416797 -175.850484 6.187142 20.419618 8.531218 -22.223982 -15.034090 -20.765951 14.900570 10.212008 74.365662 -13.445022 6.623080 17.486937 4.161637 -3.279205 -17.060788 2.496567 -27.350500 17.910580 37.614082 30.995994 -44.191171 -5.508332 10.727416 26.403911 9.672502 9.570047 11.894526 9.948595 -16.989667 32.007017 -9.318995 -0.686291 -8.609350 4.100623 -3.397092 -1.251502 3.227172 -2.354110 21.953455 -7.215779 1.269882 -23.680433 -2.154728 2.620758 10.561613 14.804790 -1.504166 14.323341 3.808575 9.509658 5.859757 -80.477606 -31.038071 25.650677 77.210700 -64.843706 -5.408612 1.205232 -44.030243 5.938108 0.000001 -0.000001 -0.000001 0.000000 -0.000000 -0.000000 0.000000 -0.000000 0.000000 -10.386792 0.375311 -0.082822 73.741007 12.482890 20.763129 -10.597735 56.407635 12.906104 -20.102273 29.164499 -1.363128 0.000002 0.000001 -0.000002 0.000000 0.000000 -0.000000 0.000000 -0.000000 -0.000000 
15.876126 15.237087 -11.999084 -178.298196 6.674953 -176.181762 7.014092 20.233012 8.226216 -22.498482 -15.935464 -22.274535 16.439045 10.261734 77.341816 -12.554035 6.820394 16.704766 4.181123 -4.515337 -15.213956 1.966380 -26.885207 18.736396 37.756738 32.036643 -45.560725 -6.383323 9.771201 30.519935 5.789352 8.355892 6.799749 9.591005 -17.313489 38.828207 -9.551539 -0.874645 -8.843256 3.858695 -3.088694 -1.365096 3.464180 -2.040657 22.597763 -7.237816 1.421148 -23.984519 -1.612149 2.712552 10.608616 15.622910 -1.147160 12.627973 4.695543 10.004413 5.815070 -81.211319 -31.014219 24.116034 71.549042 -66.056447 -1.031708 -3.836046 -45.225331 8.398813 0.000001 -0.000001 -0.000001 -0.000000 0.000000 0.000000 0.000000 -0.000000 0.000000 -10.926281 -0.453498 0.271570 74.889524 14.938896 21.202112 -10.080266 56.780476 13.059810 -20.719129 29.434684 -1.544855 0.000002 0.000001 -0.000002 -0.000000 -0.000000 0.000000 0.000000 -0.000000 0.000000 
15.920420 15.153904 -12.325315 -178.298813 6.291251 -176.922305 7.764840 19.742006 7.989930 -22.458055 -16.472711 -23.599898 17.795710 10.638513 80.107448 -11.535249 7.063875 16.137448 3.843157 -3.257694 -15.585123 1.838848 -26.405949 18.563927 38.466545 31.935778 -45.555103 -6.500373 10.624699 35.142007 1.535241 5.447637 1.800317 9.060702 -14.919473 29.989156 -10.053977 -1.098199 -8.372970 3.729704 -2.804992 -1.559576 3.708961 -1.694222 23.287896 -7.102555 1.330276 -24.533716 -1.143611 2.587346 10.539776 15.011338 -0.891617 10.904436 5.413744 11.070118 5.936298 -81.821970 -31.429714 21.963124 64.676624 -67.577034 4.093372 -9.878217 -47.275191 11.533333 0.000001 -0.000001 -0.000001 0.000000 -0.000000 0.000000 -0.000000 -0.000000 -0.000000 -11.288561 -0.969572 0.730352 75.864655 17.899594 21.274883 -9.027645 57.078094 13.888854 -20.752995 30.119578 -1.585359 0.000002 0.000001 -0.000002 -0.000000 -0.000000 0.000000 0.000000 0.000000 -0.000000 
15.963213 15.087838 -12.641366 -178.289625 6.237002 -177.797202 8.120344 19.820147 8.190810 -21.675072 -17.321166 -25.635077 20.108955 11.185665 82.215095 -11.179569 6.539005 15.912215 2.673158 -2.545804 -11.144840 2.132867 -26.561557 18.078685 39.265294 31.915561 -44.814770 -6.415003 12.316772 40.323141 -3.096479 2.148305 -2.244329 6.891948 -8.963928 24.988002 -10.397019 -1.414259 -7.874849 3.710476 -2.501648 -1.480958 3.414094 -1.400895 23.972508 -6.478704 1.267021 -24.919565 -0.708338 2.398133 10.338064 13.672509 -0.591792 9.891383 5.844214 12.493617 5.728849 -82.236476 -31.526352 21.282427 58.456460 -67.197938 9.660030 -7.186086 -47.596593 10.392090 0.000001 -0.000001 -0.000001 -0.000000 -0.000000 0.000000 -0.000000 0.000000 0.000000 -11.217916 -0.586183 1.315030 76.594257 21.520063 20.806471 -7.377921 56.880210 14.729986 -20.745460 30.294883 -1.590457 0.000002 0.000001 -0.000002 0.000000 -0.000000 -0.000000 0.000000 0.000000 -0.000000 
15.989790 15.034985 -12.955360 -178.224738 6.354030 -178.540238 7.979175 20.026412 8.650872 -20.227376 -18.063430 -28.525501 21.263409 11.362299 84.212043 -10.544823 6.798671 15.103290 2.941864 -7.643339 -5.990032 2.622021 -26.581424 17.383862 39.814240 31.818768 -44.056126 -7.237128 12.643828 44.680487 -6.060959 0.073127 -4.880125 5.354981 -6.056292 19.630119 -10.409943 -1.707474 -7.625421 3.689129 -1.759708 -1.211503 3.035791 -0.991773 25.083396 -5.834452 1.080282 -25.581844 -0.323958 2.127859 10.100963 12.218105 -0.547602 9.983691 5.804971 13.480323 5.168183 -82.506067 -31.857432 20.340293 52.019053 -66.602354 12.594732 -5.775113 -45.779927 9.304161 0.000001 -0.000001 -0.000001 0.000000 -0.000000 0.000000 0.000000 0.000000 0.000000 -10.761494 -0.574386 1.958089 76.921772 25.864969 19.951340 -5.318779 56.297361 16.041839 -20.597890 30.799224 -1.571079 0.000002 0.000001 -0.000002 0.000000 0.000000 0.000000 -0.000000 -0.000000 0.000000 
16.001051 14.993333 -13.265811 -178.071392 6.457596 -179.225211 7.375150 19.853689 9.050886 -18.068091 -18.531031 -31.703041 22.044474 11.661623 86.094560 -9.589948 7.258667 14.337386 3.121746 -6.590846 -7.539424 3.268039 -25.964859 16.479330 39.247019 31.786030 -43.605713 -9.038620 10.656627 47.639403 -7.778804 -0.689656 -6.634487 3.690613 -2.898388 16.729329 -10.177273 -2.016609 -7.429650 3.668923 -0.983873 -0.892517 2.795148 -0.652622 26.712469 -5.426123 0.804486 -26.743994 -0.018499 1.864810 9.817283 10.677774 -0.513556 10.580430 5.034742 14.729152 5.140476 -82.673991 -33.447114 17.943654 43.446956 -66.831068 15.816384 -8.736218 -44.440079 10.313604 0.000001 -0.000001 -0.000001 -0.000000 -0.000000 0.000000 -0.000000 -0.000000 0.000000 -10.175954 -0.788712 2.698667 76.779984 30.919200 18.699584 -2.928098 55.529928 17.853880 -20.322739 31.813046 -1.530119 0.000002 0.000001 -0.000002 0.000000 0.000000 0.000000 -0.000000 0.000000 0.000000 
